<?xml version="1.0" encoding="UTF-8" standalone="no"?>
<!DOCTYPE svg PUBLIC "-//W3C//DTD SVG 1.1//EN" "http://www.w3.org/Graphics/SVG/1.1/DTD/svg11.dtd">
<svg width="100%" height="100%" viewBox="0 0 24 24" version="1.1" xmlns="http://www.w3.org/2000/svg" xmlns:xlink="http://www.w3.org/1999/xlink" xml:space="preserve" xmlns:serif="http://www.serif.com/" style="fill-rule:evenodd;clip-rule:evenodd;stroke-linejoin:round;stroke-miterlimit:2;">
    <g id="Mesa-de-trabajo1" serif:id="Mesa de trabajo1" transform="matrix(1.5,0,0,1.5,0,0)">
        <rect x="0" y="0" width="16" height="16" style="fill:none;"/>
        <g transform="matrix(0,-0.666667,1.331742,0,-2.657405,16)">
            <rect x="11" y="3" width="2" height="10" style="fill:rgb(0,0,255);"/>
        </g>
        <g transform="matrix(0.666667,0,0,0.666667,2,4)">
            <rect x="13" y="9" width="2" height="2" style="fill:rgb(0,0,255);"/>
        </g>
        <g transform="matrix(0.666667,0,0,0.666667,3.333333,2.666667)">
            <rect x="13" y="9" width="2" height="2" style="fill:rgb(0,0,255);"/>
        </g>
        <g transform="matrix(0.666667,0,0,0.666667,3.333333,0)">
            <rect x="13" y="9" width="2" height="2" style="fill:rgb(0,0,255);"/>
        </g>
        <g transform="matrix(0.666667,0,0,0.666667,1.991263,-1.331334)">
            <rect x="13" y="9" width="2" height="2" style="fill:rgb(0,0,255);"/>
        </g>
    </g>
</svg>
